<?xml version="1.0" encoding="UTF-8"?>
<!DOCTYPE svg PUBLIC "-//W3C//DTD SVG 1.1//EN" "http://www.w3.org/Graphics/SVG/1.1/DTD/svg11.dtd">
<svg xmlns="http://www.w3.org/2000/svg" version="1.1" width="500px" height="500px" style="shape-rendering:geometricPrecision; text-rendering:geometricPrecision; image-rendering:optimizeQuality; fill-rule:evenodd; clip-rule:evenodd" xmlns:xlink="http://www.w3.org/1999/xlink">
<g><path style="opacity:1" fill="#294831" d="M -0.5,-0.5 C 166.167,-0.5 332.833,-0.5 499.5,-0.5C 499.5,166.167 499.5,332.833 499.5,499.5C 332.833,499.5 166.167,499.5 -0.5,499.5C -0.5,332.833 -0.5,166.167 -0.5,-0.5 Z"/></g>
<g><path style="opacity:1" fill="#fddcaa" d="M 223.5,311.5 C 213.42,321.251 202.753,330.251 191.5,338.5C 190.833,338.5 190.5,338.167 190.5,337.5C 189.672,289.237 189.172,240.904 189,192.5C 187.612,191.446 186.112,191.28 184.5,192C 185.664,239.763 185.83,287.596 185,335.5C 183.991,337.025 183.491,338.692 183.5,340.5C 182.176,290.15 182.176,239.65 183.5,189C 183.755,187.674 184.422,186.674 185.5,186C 200.83,185.5 216.163,185.333 231.5,185.5C 231.5,225.167 231.5,264.833 231.5,304.5C 229.774,304.185 228.107,304.019 226.5,304C 227.517,305.049 227.684,306.216 227,307.5C 224.929,308.103 223.762,309.436 223.5,311.5 Z"/></g>
<g><path style="opacity:1" fill="#334723" d="M 235.5,183.5 C 235.167,183.5 234.833,183.5 234.5,183.5C 216.833,183.5 199.167,183.5 181.5,183.5C 180.501,237.331 180.168,291.331 180.5,345.5C 179.833,293.332 179.167,240.998 178.5,188.5C 175.707,185.036 176.707,182.87 181.5,182C 198.833,181.333 216.167,181.333 233.5,182C 234.416,182.278 235.082,182.778 235.5,183.5 Z"/></g>
<g><path style="opacity:1" fill="#6a6e47" d="M 181.5,183.5 C 181.168,238.003 181.501,292.336 182.5,346.5C 181.377,347.757 180.711,347.424 180.5,345.5C 180.168,291.331 180.501,237.331 181.5,183.5 Z"/></g>
<g><path style="opacity:1" fill="#2b4838" d="M 175.5,189.5 C 176.833,213.491 177.5,237.824 177.5,262.5C 177.167,286.833 176.833,311.167 176.5,335.5C 175.5,286.838 175.167,238.171 175.5,189.5 Z"/></g>
<g><path style="opacity:1" fill="#f9dfa7" d="M 190.5,337.5 C 188.252,338.896 186.086,340.563 184,342.5C 183.536,341.906 183.369,341.239 183.5,340.5C 183.491,338.692 183.991,337.025 185,335.5C 185.83,287.596 185.664,239.763 184.5,192C 186.112,191.28 187.612,191.446 189,192.5C 189.172,240.904 189.672,289.237 190.5,337.5 Z"/></g>
<g><path style="opacity:1" fill="#182f1e" d="M 237.5,196.5 C 242.5,196.5 247.5,196.5 252.5,196.5C 252.5,232.167 252.5,267.833 252.5,303.5C 251.178,303.67 250.011,303.337 249,302.5C 248.5,270.835 248.333,239.168 248.5,207.5C 246.856,207.286 245.356,207.62 244,208.5C 243.667,213.5 243.333,218.5 243,223.5C 242.333,222.167 241.667,222.167 241,223.5C 240.667,218.5 240.333,213.5 240,208.5C 239.329,207.748 238.496,207.414 237.5,207.5C 237.5,203.833 237.5,200.167 237.5,196.5 Z"/></g>
<g><path style="opacity:1" fill="#f2dbb1" d="M 181.5,183.5 C 199.167,183.5 216.833,183.5 234.5,183.5C 234.833,223.839 234.5,264.172 233.5,304.5C 230.131,306.884 226.797,309.217 223.5,311.5C 223.762,309.436 224.929,308.103 227,307.5C 227.684,306.216 227.517,305.049 226.5,304C 228.107,304.019 229.774,304.185 231.5,304.5C 231.5,264.833 231.5,225.167 231.5,185.5C 216.163,185.333 200.83,185.5 185.5,186C 184.422,186.674 183.755,187.674 183.5,189C 182.176,239.65 182.176,290.15 183.5,340.5C 183.369,341.239 183.536,341.906 184,342.5C 186.086,340.563 188.252,338.896 190.5,337.5C 190.5,338.167 190.833,338.5 191.5,338.5C 188.479,340.854 185.812,343.521 183.5,346.5C 183.167,346.5 182.833,346.5 182.5,346.5C 181.501,292.336 181.168,238.003 181.5,183.5 Z"/></g>
<g><path style="opacity:1" fill="#202a16" d="M 235.5,196.5 C 236.167,196.5 236.833,196.5 237.5,196.5C 237.5,200.167 237.5,203.833 237.5,207.5C 237.5,240.167 237.5,272.833 237.5,305.5C 242.5,305.5 247.5,305.5 252.5,305.5C 252.5,306.167 252.5,306.833 252.5,307.5C 246.833,307.5 241.167,307.5 235.5,307.5C 235.516,270.708 235.516,233.708 235.5,196.5 Z"/></g>
<g><path style="opacity:1" fill="#182c1f" d="M 237.5,207.5 C 238.496,207.414 239.329,207.748 240,208.5C 240.333,213.5 240.667,218.5 241,223.5C 241.667,222.167 242.333,222.167 243,223.5C 243.333,218.5 243.667,213.5 244,208.5C 245.356,207.62 246.856,207.286 248.5,207.5C 248.333,239.168 248.5,270.835 249,302.5C 250.011,303.337 251.178,303.67 252.5,303.5C 252.5,304.167 252.5,304.833 252.5,305.5C 247.5,305.5 242.5,305.5 237.5,305.5C 237.5,272.833 237.5,240.167 237.5,207.5 Z"/></g>
<g><path style="opacity:1" fill="#444b2c" d="M 234.5,183.5 C 234.833,183.5 235.167,183.5 235.5,183.5C 235.5,187.833 235.5,192.167 235.5,196.5C 235.516,233.708 235.516,270.708 235.5,307.5C 235.5,307.833 235.5,308.167 235.5,308.5C 225.874,315.459 216.541,322.792 207.5,330.5C 200.386,337.222 192.719,343.222 184.5,348.5C 184.167,347.833 183.833,347.167 183.5,346.5C 185.812,343.521 188.479,340.854 191.5,338.5C 202.753,330.251 213.42,321.251 223.5,311.5C 226.797,309.217 230.131,306.884 233.5,304.5C 234.5,264.172 234.833,223.839 234.5,183.5 Z"/></g>
<g><path style="opacity:1" fill="#fddca9" d="M 235.5,308.5 C 263.5,308.5 291.5,308.5 319.5,308.5C 319.5,321.5 319.5,334.5 319.5,347.5C 277.167,347.5 234.833,347.5 192.5,347.5C 192.281,346.325 192.614,345.325 193.5,344.5C 199.058,341.314 203.892,337.314 208,332.5C 208.692,331.563 208.525,330.897 207.5,330.5C 216.541,322.792 225.874,315.459 235.5,308.5 Z"/></g>
<g><path style="opacity:1" fill="#192b1d" d="M 320.5,320.5 C 326.167,320.5 331.833,320.5 337.5,320.5C 337.5,334.5 337.5,348.5 337.5,362.5C 291.499,362.667 245.499,362.5 199.5,362C 198.544,358.606 198.211,355.106 198.5,351.5C 200.6,351.477 202.433,352.144 204,353.5C 242.817,353.178 281.317,352.178 319.5,350.5C 320.494,340.681 320.827,330.681 320.5,320.5 Z"/></g>
<g><path style="opacity:1" fill="#f1e1b7" d="M 207.5,330.5 C 208.525,330.897 208.692,331.563 208,332.5C 203.892,337.314 199.058,341.314 193.5,344.5C 192.614,345.325 192.281,346.325 192.5,347.5C 234.833,347.5 277.167,347.5 319.5,347.5C 275.676,349.165 231.676,350.165 187.5,350.5C 186.127,350.657 184.793,350.49 183.5,350C 184.056,349.617 184.389,349.117 184.5,348.5C 192.719,343.222 200.386,337.222 207.5,330.5 Z"/></g>
<g><path style="opacity:1" fill="#bbb38f" d="M 235.5,308.5 C 235.5,308.167 235.5,307.833 235.5,307.5C 241.167,307.5 246.833,307.5 252.5,307.5C 275.167,307.5 297.833,307.5 320.5,307.5C 320.5,311.833 320.5,316.167 320.5,320.5C 320.827,330.681 320.494,340.681 319.5,350.5C 278.833,350.5 238.167,350.5 197.5,350.5C 194.167,350.5 190.833,350.5 187.5,350.5C 231.676,350.165 275.676,349.165 319.5,347.5C 319.5,334.5 319.5,321.5 319.5,308.5C 291.5,308.5 263.5,308.5 235.5,308.5 Z"/></g>
<g><path style="opacity:1" fill="#212a16" d="M 197.5,350.5 C 238.167,350.5 278.833,350.5 319.5,350.5C 281.317,352.178 242.817,353.178 204,353.5C 202.433,352.144 200.6,351.477 198.5,351.5C 197.833,351.5 197.5,351.167 197.5,350.5 Z"/></g>
</svg>
